<?xml version="1.0" encoding="utf-8"?>
<!-- Generator: Adobe Illustrator 22.0.1, SVG Export Plug-In . SVG Version: 6.00 Build 0)  -->
<svg version="1.1" id="Layer_1" xmlns="http://www.w3.org/2000/svg" xmlns:xlink="http://www.w3.org/1999/xlink" x="0px" y="0px"
	 viewBox="0 0 480 290" style="enable-background:new 0 0 480 290;" xml:space="preserve">
<style type="text/css">
	.st0{fill:#F7921E;}
	.st1{fill:#ED2024;}
	.st2{fill:#C31A7D;}
	.st3{fill:#632E91;}
	.st4{fill:#2A3590;}
	.st5{fill:#06A2C8;}
	.st6{fill:#1AAD4B;}
	.st7{fill:#F6EB16;}
	.st8{fill:#FFC60E;}
	.st9{fill:#F26722;}
	.st10{fill:#C21E5B;}
	.st11{fill:#7E2C91;}
	.st12{fill:#3F2F90;}
	.st13{fill:#1466B1;}
	.st14{fill:#36BA9B;}
	.st15{fill:#8EC73F;}
	.st16{fill:#FFFFFF;}
	.st17{fill:#262626;}
	.st18{font-family:'Roboto-Regular';}
	.st19{font-size:50px;}
</style>
<g id="surface2" transform="matrix(1,0,0,1,-0.5,-0.5)">
	<path class="st0" d="M286.8,68.9c0,0.2,0.1,0.4,0.1,0.6c0,0.1,0.1,0.3,0.1,0.3c0,0.3-0.1,0.5-0.1,0.8c0,0.1,0,0.1,0,0.2
		c-0.1,0.3-0.2,0.5-0.3,0.8c0,0.1,0,0.2-0.1,0.3c-0.1,0.2-0.2,0.4-0.3,0.7c-0.1,0.1-0.1,0.1-0.1,0.3c-0.2,0.3-0.4,0.5-0.7,0.8
		l-9.8,9.8c0.5,0.3,1,0.6,1.4,1l30,30c0.3-0.7,0.5-1.4,0.5-2.2V73.3c-0.3-3.3-2.2-5.1-5.5-5.4h-15.5c0.1,0.3,0.2,0.6,0.3,0.8
		C286.8,68.8,286.8,68.9,286.8,68.9"/>
	<path class="st1" d="M239.8,49.7C239.8,49.7,239.8,49.7,239.8,49.7c0.5,0.3,0.9,0.6,1.2,0.9c0,0,0.1,0.1,0.1,0.1
		c0.1,0.2,0.3,0.4,0.4,0.6l0,0c0.1,0.2,0.2,0.4,0.3,0.6c0,0.1,0.1,0.1,0.1,0.2c0.1,0.2,0.2,0.4,0.3,0.6c0,0,0,0,0,0.1
		c0.1,0.2,0.1,0.4,0.1,0.6c0,0.1,0,0.1,0.1,0.2c0,0.2,0.1,0.5,0.1,0.7v13.8c0.5-0.2,1.1-0.3,1.8-0.3h42.3c-0.3-0.7-0.7-1.3-1.2-1.9
		l-27.5-27.5c-2.6-2.1-5.1-2.1-7.7,0l-10.9,11l0,0C239.4,49.4,239.6,49.6,239.8,49.7"/>
	<path class="st1" d="M286.8,68.9c0-0.1,0-0.2-0.1-0.3C286.8,68.7,286.8,68.8,286.8,68.9"/>
	<path class="st1" d="M286.4,71.9c0-0.1,0.1-0.1,0.1-0.3C286.4,71.8,286.4,71.9,286.4,71.9"/>
	<path class="st1" d="M285.9,72.8c0.1-0.1,0.1-0.2,0.1-0.3C286,72.6,285.9,72.7,285.9,72.8"/>
	<path class="st2" d="M193.8,69.4c0.2,0,0.4,0,0.6-0.1c0.1,0,0.3,0,0.3,0c0.3,0,0.5,0,0.8,0.1c0.1,0,0.1,0,0.2,0
		c0.3,0.1,0.6,0.1,0.9,0.3c0.1,0,0.2,0.1,0.3,0.1c0.2,0.1,0.4,0.2,0.7,0.3c0.1,0.1,0.1,0.1,0.3,0.2c0.3,0.2,0.5,0.4,0.8,0.6l9.8,9.8
		c0.3-0.5,0.6-1,1-1.4l30-30c-0.7-0.3-1.4-0.4-2.2-0.4h-38.9c-3.3,0.3-5.1,2.1-5.4,5.4v15.4c0.3-0.1,0.6-0.2,0.8-0.3
		C193.6,69.5,193.7,69.5,193.8,69.4"/>
	<path class="st2" d="M242.4,54.4c0-0.3,0-0.5-0.1-0.8C242.4,53.8,242.4,54.1,242.4,54.4"/>
	<path class="st2" d="M241.5,51.3c-0.1-0.2-0.3-0.4-0.4-0.6C241.2,50.9,241.3,51.1,241.5,51.3"/>
	<path class="st2" d="M239.8,49.7c-0.2-0.1-0.4-0.3-0.6-0.3C239.4,49.4,239.6,49.6,239.8,49.7"/>
	<path class="st2" d="M242.3,53.4c0-0.2-0.1-0.4-0.1-0.6C242.2,52.9,242.2,53.2,242.3,53.4"/>
	<path class="st2" d="M239.8,49.7c0.4,0.3,0.8,0.6,1.1,0.9C240.6,50.3,240.2,50,239.8,49.7"/>
	<path class="st2" d="M241.8,51.9c-0.1-0.2-0.2-0.4-0.4-0.6C241.6,51.5,241.7,51.7,241.8,51.9"/>
	<path class="st2" d="M242.1,52.7c-0.1-0.2-0.2-0.4-0.3-0.6C242,52.3,242.1,52.5,242.1,52.7"/>
	<path class="st3" d="M174.5,116.5C174.5,116.5,174.5,116.5,174.5,116.5c0.3-0.4,0.6-0.8,0.9-1.1c0,0,0.1-0.1,0.1-0.1
		c0.2-0.1,0.4-0.3,0.6-0.4l0,0c0.2-0.1,0.4-0.2,0.6-0.3c0.1,0,0.1-0.1,0.2-0.1c0.2-0.1,0.4-0.2,0.6-0.3c0,0,0,0,0.1,0
		c0.2-0.1,0.4-0.1,0.6-0.1c0.1,0,0.1,0,0.2-0.1c0.2,0,0.5,0,0.7-0.1h13.8c-0.2-0.5-0.3-1.1-0.3-1.8V69.8c-0.7,0.3-1.3,0.7-1.9,1.2
		l-27.5,27.6c-2.1,2.5-2.1,5.1,0,7.6l11,10.9l0,0C174.3,116.9,174.4,116.7,174.5,116.5"/>
	<path class="st3" d="M196.8,69.9c-0.1,0-0.1-0.1-0.3-0.1C196.6,69.8,196.7,69.9,196.8,69.9"/>
	<path class="st3" d="M197.6,70.4c-0.1-0.1-0.2-0.1-0.3-0.1C197.4,70.3,197.5,70.3,197.6,70.4"/>
	<path class="st3" d="M193.7,69.5c-0.1,0-0.2,0-0.3,0.1C193.5,69.5,193.6,69.5,193.7,69.5"/>
	<path class="st4" d="M194.3,162.6c0-0.2,0-0.4-0.1-0.7c0-0.1,0-0.2,0-0.3c0-0.3,0-0.5,0.1-0.8c0-0.1,0-0.1,0-0.2
		c0.1-0.3,0.1-0.6,0.3-0.9c0-0.1,0.1-0.1,0.1-0.3c0.1-0.2,0.2-0.4,0.3-0.6c0.1-0.1,0.1-0.2,0.2-0.3c0.2-0.3,0.4-0.5,0.6-0.8l9.8-9.8
		c-0.5-0.3-1-0.6-1.4-1l-30-30c-0.3,0.7-0.4,1.4-0.4,2.2v38.9c0.3,3.3,2.1,5.1,5.4,5.4h15.4c-0.1-0.3-0.2-0.6-0.3-0.8
		C194.3,162.8,194.3,162.6,194.3,162.6"/>
	<path class="st4" d="M174.5,116.5c-0.1,0.2-0.3,0.4-0.3,0.6C174.3,116.9,174.4,116.7,174.5,116.5"/>
	<path class="st4" d="M176.1,114.8c-0.2,0.1-0.4,0.3-0.6,0.4C175.7,115.1,175.9,114.9,176.1,114.8"/>
	<path class="st4" d="M174.5,116.4c0.3-0.4,0.6-0.8,0.9-1.1C175.1,115.7,174.8,116.1,174.5,116.4"/>
	<path class="st4" d="M176.7,114.4c-0.2,0.1-0.4,0.2-0.6,0.4C176.3,114.7,176.5,114.6,176.7,114.4"/>
	<path class="st4" d="M179.2,113.9c-0.3,0-0.5,0-0.8,0.1C178.7,113.9,178.9,113.9,179.2,113.9"/>
	<path class="st4" d="M178.2,114c-0.2,0-0.4,0.1-0.6,0.1C177.8,114.1,178,114,178.2,114"/>
	<path class="st4" d="M177.5,114.1c-0.2,0.1-0.4,0.2-0.6,0.3C177.1,114.3,177.3,114.2,177.5,114.1"/>
	<path class="st5" d="M241.3,181.8C241.3,181.8,241.3,181.8,241.3,181.8c-0.4-0.3-0.8-0.6-1.1-1c0,0-0.1,0-0.1-0.1
		c-0.1-0.2-0.3-0.4-0.4-0.6l0,0c-0.1-0.2-0.2-0.4-0.3-0.6c0,0-0.1-0.1-0.1-0.1c-0.1-0.2-0.2-0.5-0.3-0.7l0,0
		c-0.1-0.2-0.1-0.4-0.1-0.6c0-0.1,0-0.1-0.1-0.2c0-0.2,0-0.5-0.1-0.8v-13.8c-0.5,0.2-1.1,0.3-1.8,0.3h-42.3c0.3,0.7,0.7,1.3,1.2,1.9
		l27.6,27.5c2.5,2.1,5.1,2.1,7.6,0l10.9-11l0,0C241.7,182.1,241.5,181.9,241.3,181.8"/>
	<path class="st5" d="M194.7,159.5c0,0.1-0.1,0.2-0.1,0.3C194.7,159.7,194.7,159.6,194.7,159.5"/>
	<path class="st5" d="M195.2,158.6c-0.1,0.1-0.1,0.2-0.1,0.3C195.1,158.8,195.2,158.7,195.2,158.6"/>
	<path class="st5" d="M194.3,162.6c0,0.1,0,0.2,0.1,0.3C194.3,162.8,194.3,162.6,194.3,162.6"/>
	<path class="st6" d="M287.4,161.9c-0.2,0-0.4,0.1-0.7,0.1c-0.1,0-0.2,0.1-0.3,0.1c-0.3,0-0.5-0.1-0.8-0.1c-0.1,0-0.1,0-0.2,0
		c-0.3-0.1-0.6-0.2-0.9-0.3c-0.1,0-0.1,0-0.3-0.1c-0.2-0.1-0.4-0.2-0.6-0.3c-0.1-0.1-0.2-0.1-0.3-0.1c-0.3-0.2-0.5-0.4-0.8-0.7
		l-9.8-9.8c-0.3,0.5-0.6,1-1,1.4l-30,30c0.7,0.3,1.4,0.5,2.2,0.5h38.9c3.3-0.3,5.1-2.2,5.4-5.5v-15.4c-0.3,0.1-0.6,0.1-0.8,0.2
		C287.6,161.9,287.5,161.9,287.4,161.9"/>
	<path class="st6" d="M238.7,177.1c0,0.2,0,0.5,0.1,0.8C238.7,177.6,238.7,177.4,238.7,177.1"/>
	<path class="st6" d="M239.3,179.6c0.1,0.2,0.2,0.4,0.4,0.6C239.5,179.9,239.4,179.8,239.3,179.6"/>
	<path class="st6" d="M241.3,181.8c0.2,0.1,0.4,0.3,0.6,0.4C241.7,182,241.5,181.9,241.3,181.8"/>
	<path class="st6" d="M241.2,181.8c-0.4-0.3-0.8-0.6-1.1-0.9C240.5,181.2,240.8,181.5,241.2,181.8"/>
	<path class="st6" d="M239,178.8c0.1,0.2,0.2,0.4,0.3,0.6C239.1,179.2,239,179,239,178.8"/>
	<path class="st6" d="M239.6,180.1c0.1,0.2,0.3,0.4,0.4,0.6C239.9,180.5,239.8,180.4,239.6,180.1"/>
	<path class="st6" d="M238.8,178.1c0,0.2,0.1,0.4,0.1,0.6C238.9,178.5,238.9,178.3,238.8,178.1"/>
	<path class="st7" d="M317.9,125.3l-11-10.9c-1,2-2.6,3.1-5,3.3h-13.8c0.2,0.5,0.3,1.1,0.3,1.8v42.3c0.7-0.3,1.3-0.7,1.9-1.2
		l27.5-27.5C320,130.4,320,127.8,317.9,125.3"/>
	<path class="st7" d="M283.5,161.1c0.1,0.1,0.2,0.1,0.3,0.1C283.6,161.2,283.5,161.1,283.5,161.1"/>
	<path class="st7" d="M287.4,161.9c0.1,0,0.2,0,0.3-0.1C287.6,161.9,287.5,161.9,287.4,161.9"/>
	<path class="st7" d="M284.3,161.6c0.1,0,0.2,0.1,0.3,0.1C284.5,161.6,284.4,161.6,284.3,161.6"/>
	<path class="st8" d="M275.5,83.4l-12.1,12c4.6,5.1,7.1,11.3,7.7,18.5h11.9c2.5,0.1,4.3,1.4,5.1,3.7H302c2.4-0.1,4-1.2,5-3.2l-30-30
		C276.5,83.9,276.1,83.6,275.5,83.4"/>
	<path class="st9" d="M242.4,68.1v17c8.6,0.7,15.6,4.2,21.1,10.3l12.1-12l9.8-9.8c0.2-0.2,0.4-0.5,0.6-0.8c0.1-0.1,0.1-0.2,0.2-0.3
		c0.1-0.2,0.2-0.4,0.3-0.7c0-0.1,0.1-0.1,0.1-0.3c0.1-0.3,0.2-0.6,0.3-0.8c0-0.1,0-0.1,0-0.2c0-0.2,0.1-0.5,0.1-0.8
		c0-0.1-0.1-0.2-0.1-0.3c0-0.2,0-0.4-0.1-0.6c0-0.1,0-0.2-0.1-0.3c0-0.3-0.1-0.6-0.3-0.8h-42.3C243.5,67.8,242.9,67.9,242.4,68.1"/>
	<path class="st10" d="M208.2,80.8l12,12.1c5.6-5,12.4-7.6,20.4-7.8c0.6,0,1.2,0,1.8,0V54.3c0-0.2,0-0.5-0.1-0.7c0-0.1,0-0.1,0-0.2
		c-0.1-0.2-0.1-0.4-0.1-0.6c0,0-0.1,0-0.1-0.1c-0.1-0.2-0.2-0.4-0.3-0.6c0,0,0-0.1-0.1-0.2c-0.1-0.2-0.2-0.4-0.4-0.5
		c0,0,0-0.1,0-0.1c-0.1-0.2-0.3-0.4-0.4-0.6c0,0,0-0.1-0.1-0.1c-0.3-0.3-0.7-0.6-1.1-0.9c0,0-0.1-0.1-0.1-0.1
		c-0.2-0.1-0.4-0.3-0.6-0.3c0,0,0,0,0,0l-30,29.9C208.8,79.8,208.4,80.3,208.2,80.8"/>
	<path class="st11" d="M192.9,113.9h17c0.7-8.6,4.2-15.6,10.3-21.1l-12-12.1l-9.8-9.8c-0.2-0.3-0.5-0.5-0.8-0.7
		c-0.1,0-0.2-0.1-0.3-0.1c-0.2-0.1-0.4-0.3-0.7-0.4c-0.1,0-0.1-0.1-0.3-0.1c-0.3-0.1-0.6-0.2-0.9-0.3c0,0-0.1,0-0.2-0.1
		c-0.2,0-0.5-0.1-0.8-0.1c-0.1,0-0.2,0-0.3,0c-0.2,0-0.4,0-0.6,0.1c-0.1,0-0.2,0.1-0.3,0.1c-0.3,0.1-0.6,0.1-0.8,0.3v42.4
		C192.6,112.8,192.7,113.4,192.9,113.9"/>
	<path class="st12" d="M205.6,148.1l12.1-12.1c-5-5.6-7.6-12.4-7.8-20.4c0-0.6,0-1.2,0-1.8h-30.8c-0.2,0-0.5,0-0.7,0.1
		c-0.1,0-0.1,0-0.2,0.1c-0.2,0-0.4,0.1-0.6,0.1c0,0,0,0-0.1,0c-0.2,0.1-0.4,0.2-0.6,0.3c0,0-0.1,0.1-0.2,0.1
		c-0.2,0.1-0.4,0.2-0.5,0.4c0,0-0.1,0-0.1,0c-0.2,0.1-0.4,0.3-0.6,0.4c0,0-0.1,0.1-0.1,0.1c-0.3,0.3-0.6,0.7-0.9,1.1
		c0,0-0.1,0-0.1,0.1c-0.1,0.2-0.3,0.4-0.3,0.6l0,0l29.9,30C204.6,147.5,205.1,147.9,205.6,148.1"/>
	<path class="st13" d="M238.8,163.4v-17.1c-8.6-0.7-15.6-4.1-21.1-10.3l-21.8,21.8c-0.3,0.2-0.5,0.5-0.7,0.8
		c-0.1,0.1-0.1,0.2-0.1,0.3c-0.1,0.2-0.3,0.4-0.4,0.6c0,0.1-0.1,0.1-0.1,0.3c-0.1,0.3-0.2,0.6-0.3,0.9c0,0,0,0.1-0.1,0.2
		c0,0.3-0.1,0.5-0.1,0.8c0,0.1,0,0.3,0,0.3c0,0.2,0,0.4,0.1,0.6c0,0.1,0.1,0.3,0.1,0.4c0.1,0.3,0.1,0.5,0.3,0.8H237
		C237.6,163.6,238.2,163.6,238.8,163.4"/>
	<path class="st14" d="M272.9,150.7l-12.1-12.1c-5.6,5-12.4,7.6-20.4,7.8c-0.6,0-1.2,0-1.8,0v30.8c0,0.3,0,0.5,0.1,0.8
		c0,0.1,0,0.1,0.1,0.2c0,0.2,0.1,0.5,0.1,0.7l0,0c0.1,0.2,0.2,0.4,0.3,0.6c0,0.1,0.1,0.1,0.1,0.2c0.1,0.2,0.2,0.4,0.4,0.6l0,0
		c0.1,0.2,0.3,0.4,0.4,0.6c0,0,0.1,0,0.1,0.1c0.3,0.4,0.7,0.7,1.1,0.9c0,0,0,0,0.1,0.1c0.2,0.1,0.4,0.2,0.6,0.3c0,0,0,0,0,0l30-30
		C272.4,151.7,272.7,151.2,272.9,150.7"/>
	<path class="st15" d="M288.2,117.6c-0.9-2.3-2.6-3.5-5.1-3.7h-11.9c0,0.6,0.1,1.3,0.1,1.8c-0.3,9.4-3.7,17-10.3,22.9l12.1,12.1
		l9.8,9.8c0.2,0.2,0.5,0.4,0.8,0.6c0.1,0.1,0.2,0.1,0.3,0.1c0.2,0.1,0.4,0.3,0.6,0.4c0.1,0,0.1,0.1,0.3,0.1c0.3,0.1,0.6,0.2,0.9,0.3
		c0,0,0.1,0.1,0.2,0.1c0.3,0,0.5,0.1,0.8,0.1c0.1,0,0.3,0,0.3,0c0.2,0,0.4,0,0.6-0.1c0.1,0,0.3-0.1,0.4-0.1c0.3-0.1,0.5-0.1,0.8-0.3
		v-42.3C288.5,118.7,288.4,118.1,288.2,117.6"/>
	<path class="st8" d="M263.7,113.9h4c-0.5-6.2-2.8-11.6-6.7-16.1l-2.8,2.8C261.4,104.3,263.2,108.8,263.7,113.9"/>
	<path class="st9" d="M258.2,100.6l2.9-2.8c-4.8-5.5-11.1-8.6-18.7-9.3v4C248.9,93.2,254.2,95.9,258.2,100.6"/>
	<path class="st10" d="M240.5,92.4c0.6,0,1.3,0,1.9,0.1v-4c-0.6,0-1.2-0.1-1.8-0.1c-7,0.2-13,2.4-17.9,6.8l2.8,2.8
		C229.6,94.4,234.6,92.6,240.5,92.4"/>
	<path class="st11" d="M225.4,98.1l-2.8-2.8c-5.5,4.8-8.6,11.1-9.3,18.7h3.9C218,107.4,220.7,102.1,225.4,98.1"/>
	<path class="st12" d="M217.2,115.7c0-0.6,0-1.2,0.1-1.8h-3.9c0,0.6-0.1,1.2-0.1,1.8c0.2,7,2.4,13,6.8,17.9l2.8-2.8
		C219.2,126.6,217.3,121.6,217.2,115.7"/>
	<path class="st13" d="M222.9,130.9l-2.8,2.8c4.8,5.5,11.1,8.6,18.7,9.3v-3.9C232.2,138.3,226.9,135.6,222.9,130.9"/>
	<path class="st14" d="M240.5,139c-0.6,0-1.2,0-1.8-0.1v3.9c0.6,0,1.2,0.1,1.8,0.1c7-0.1,13-2.4,17.9-6.8l-2.8-2.8
		C251.5,137,246.4,138.9,240.5,139"/>
	<path class="st15" d="M267.8,113.9h-4.1c0.1,0.6,0.1,1.2,0.1,1.8c-0.2,7.3-2.9,13.2-8.1,17.7l2.8,2.8c6-5.2,9.1-12.1,9.4-20.5
		C267.8,115.1,267.8,114.5,267.8,113.9"/>
	<path class="st16" d="M240.5,88.4c-7.7,0.2-14.1,2.9-19.3,8s-7.8,11.6-8,19.3c0.2,7.7,2.9,14.1,8,19.3s11.6,7.8,19.3,8
		c7.7-0.2,14.1-2.9,19.3-8s7.8-11.6,8-19.3c-0.2-7.7-2.9-14.1-8-19.3S248.2,88.6,240.5,88.4 M240.5,146.4c-8.7-0.2-15.9-3.2-21.6-9
		c-5.8-5.8-8.8-13-9-21.7c0.2-8.7,3.2-15.9,9-21.6s13-8.8,21.6-9c8.7,0.2,15.9,3.2,21.7,9c5.8,5.8,8.8,13,9,21.6
		c-0.2,8.7-3.2,15.9-9,21.7C256.4,143.1,249.2,146.1,240.5,146.4"/>
	<path class="st17" d="M244.6,125.1c-1.7-0.1-2.7-1.1-2.9-2.8c0.2-1.8,1.1-2.7,2.9-2.9c1.7,0.1,2.7,1.1,2.9,2.9
		C247.2,123.9,246.3,124.9,244.6,125.1 M240.5,93.7c-0.5,0-1.1,0-1.6,0.1c-0.1,0-0.3,0.1-0.3,0.1c-0.5,0-1,0.1-1.5,0.1
		c-0.1,0-0.1,0.1-0.2,0.1c-0.5,0.1-0.9,0.2-1.4,0.3c-0.1,0-0.2,0-0.3,0.1c-0.5,0.1-1,0.2-1.5,0.4c0,0-0.1,0-0.1,0.1
		c-0.5,0.1-0.9,0.3-1.4,0.5c0,0-0.1,0.1-0.1,0.1c-0.5,0.2-1,0.4-1.5,0.6l0,0c-1,0.5-1.9,1.1-2.8,1.7l0,0c1-0.3,2-0.5,3-0.5
		c5.8,0.5,9,3.7,9.6,9.6c-0.6,5.8-3.8,9-9.6,9.6c-5.8-0.5-9-3.7-9.5-9.6c0-0.9,0.1-1.8,0.3-2.6l0,0c-0.2,0.4-0.5,0.8-0.7,1.3
		c0,0-0.1,0.1-0.1,0.2c-0.2,0.4-0.3,0.7-0.5,1.1c0,0.1-0.1,0.1-0.1,0.2c-0.4,0.8-0.7,1.7-0.9,2.6c0,0.1-0.1,0.2-0.1,0.3
		c-0.1,0.4-0.2,0.8-0.3,1.1c0,0.1-0.1,0.1-0.1,0.2c-0.1,0.5-0.2,0.9-0.3,1.4c0,0.1-0.1,0.2-0.1,0.3c-0.1,0.4-0.1,0.7-0.1,1.1
		c0,0.1-0.1,0.3-0.1,0.4c0,0.5-0.1,0.9-0.1,1.4c0.2,6.2,2.3,11.4,6.4,15.6c4.1,4.2,9.3,6.3,15.6,6.4c0.5,0,0.9,0,1.4-0.1
		c0.1,0,0.3,0,0.4,0c0.3,0,0.7-0.1,1-0.1c0.1,0,0.2-0.1,0.4-0.1c0.9-0.1,1.8-0.3,2.6-0.6c0,0,0.1,0,0.2-0.1c0.4-0.1,0.8-0.2,1.1-0.3
		c0.1,0,0.1-0.1,0.1-0.1c1.3-0.5,2.6-1.1,3.8-1.8c0,0-0.1,0-0.1,0c-2.8-0.2-4.4-1.8-4.6-4.6c0.3-2.8,1.8-4.4,4.6-4.6
		c2.8,0.3,4.4,1.8,4.7,4.6c0,0.4-0.1,0.9-0.2,1.3c1.5-1.5,2.8-3.2,3.9-5c0,0,0-0.1,0-0.1c0.2-0.3,0.3-0.6,0.4-0.9l0.1,0
		c0.1-0.3,0.3-0.6,0.4-0.9c0,0,0-0.1,0.1-0.1c0.1-0.3,0.2-0.6,0.4-0.9c0-0.1,0-0.1,0.1-0.1c0.1-0.3,0.2-0.6,0.3-0.9
		c0-0.1,0-0.1,0.1-0.2c0.1-0.3,0.2-0.6,0.3-0.9c0-0.1,0-0.1,0.1-0.2c0.1-0.3,0.1-0.5,0.2-0.8c0-0.1,0.1-0.2,0.1-0.3
		c0.1-0.3,0.1-0.5,0.1-0.8c0-0.1,0.1-0.2,0.1-0.3c0-0.3,0.1-0.5,0.1-0.8c0-0.1,0.1-0.2,0.1-0.4c0-0.2,0-0.5,0-0.8
		c0-0.1,0-0.3,0.1-0.3c0-0.4,0-0.8,0-1.2c-0.2-6.2-2.3-11.4-6.4-15.6C251.9,96,246.8,93.9,240.5,93.7"/>
</g>
<g id="surface4">
	<text transform="matrix(1 0 0 1 179.0198 238.8)" class="st17 st18 st19">VYCE</text>
</g>
</svg>
